<svg id="Layer_1" data-name="Layer 1" xmlns="http://www.w3.org/2000/svg" viewBox="0 0 453.93 456.06"><defs><style>.cls-1{fill:#fff;}</style></defs><title>Artboard 6</title><rect width="453.93" height="456.06" rx="38.35"/><path class="cls-1" d="M227.86,267.52a36.91,36.91,0,0,1-15.5,31.22,53.08,53.08,0,0,1-16.76,8,72.72,72.72,0,0,1-20.32,2.75H96.53v-163h87.24a32.17,32.17,0,0,1,15.39,3.68,38.42,38.42,0,0,1,11.71,9.53A43.73,43.73,0,0,1,218.33,173,44.65,44.65,0,0,1,215,210.47,36.34,36.34,0,0,1,197.55,226q14,4.14,22.16,14.81T227.86,267.52Zm-99.65-93.9v41.09h42.25a18.8,18.8,0,0,0,13.66-5.51q5.63-5.5,5.62-15.15,0-9.41-5.16-14.92a16.74,16.74,0,0,0-12.74-5.51Zm67.73,87.93a24,24,0,0,0-1.49-8.38,23.22,23.22,0,0,0-4-7,18.67,18.67,0,0,0-6-4.71,16.64,16.64,0,0,0-7.57-1.72H128.21v42.93h47.07a20.65,20.65,0,0,0,8.15-1.61,19.56,19.56,0,0,0,6.55-4.47,21.8,21.8,0,0,0,6-15Z"/><path class="cls-1" d="M296.48,309.53a64.69,64.69,0,0,1-25.36-4.78,57.18,57.18,0,0,1-31.69-32.15,61.19,61.19,0,0,1-4.34-22.91,64.9,64.9,0,0,1,4.23-23.47A57,57,0,0,1,271,193.63a64.8,64.8,0,0,1,25.69-4.89,63.23,63.23,0,0,1,25.47,4.89c24.62,10.73,36.22,34.59,35.15,60.51a22.91,22.91,0,0,1-.55,4.45h-90.1A34.44,34.44,0,0,0,270,270.82a29.93,29.93,0,0,0,16.47,14.91,31.49,31.49,0,0,0,11.12,2,34.25,34.25,0,0,0,16.79-4.34q7.91-4.33,10.79-11.45l25.58,7.12q-6.45,13.35-20.57,21.91T296.48,309.53Zm30.26-70.29q-1.11-13.12-9.68-21a31.22,31.22,0,0,0-32-5.78,29.28,29.28,0,0,0-9.23,5.89,30.66,30.66,0,0,0-6.57,9.13,32.27,32.27,0,0,0-3,11.78h60.51Z"/><path class="cls-1" d="M257.26,154.26h78v19.36h-78Z"/></svg>