<svg xmlns="http://www.w3.org/2000/svg" viewBox="0 0 182.95 205.85"><defs><style>.cls-1{fill:#132c32;}</style></defs><title>Artboard 8</title><g id="Layer_3" data-name="Layer 3"><path class="cls-1" d="M180.62,51.46A16.39,16.39,0,0,0,175,45.54L99.4,1.88C95-.63,87.91-.63,83.55,1.88L7.92,45.54C3.57,48.06,0,54.24,0,59.27v87.32a16.18,16.18,0,0,0,2.33,7.8,16.39,16.39,0,0,0,5.59,5.92L83.55,204c4.36,2.51,11.48,2.51,15.85,0L175,160.31a16.39,16.39,0,0,0,5.59-5.92,16.15,16.15,0,0,0,2.33-7.8V59.27A16.22,16.22,0,0,0,180.62,51.46Zm-89.15,82a30.64,30.64,0,0,0,26.43-15.24l26.38,15.28a61,61,0,1,1,0-61L117.9,87.7a30.5,30.5,0,1,0-26.43,45.73Z"/></g></svg>