<svg id="Layer_1" data-name="Layer 1" xmlns="http://www.w3.org/2000/svg" viewBox="0 0 453.93 456.06"><defs><style>.cls-1{fill:#fff;}</style></defs><title>Artboard 4</title><rect width="453.93" height="456.06" rx="38.35"/><path class="cls-1" d="M296.5,143.59A15.4,15.4,0,1,0,311.91,159,15.4,15.4,0,0,0,296.5,143.59Z"/><path class="cls-1" d="M228,163.34A64.69,64.69,0,1,0,292.73,228,64.76,64.76,0,0,0,228,163.34Zm0,106.12A41.44,41.44,0,1,1,269.48,228,41.48,41.48,0,0,1,228,269.46Z"/><path class="cls-1" d="M279.4,359.37H174.53a79,79,0,0,1-78.9-78.9V175.59a79,79,0,0,1,78.9-78.9H279.4a79,79,0,0,1,78.9,78.9V280.47A79,79,0,0,1,279.4,359.37Zm-104.87-238a54.25,54.25,0,0,0-54.19,54.19V280.47a54.24,54.24,0,0,0,54.19,54.18H279.4a54.24,54.24,0,0,0,54.19-54.18V175.59A54.25,54.25,0,0,0,279.4,121.4Z"/></svg>