<svg xmlns="http://www.w3.org/2000/svg" viewBox="0 0 197.83 197.83"><defs><style>.cls-1{fill:#132c32;}</style></defs><title>Artboard 10</title><g id="Layer_3" data-name="Layer 3"><path class="cls-1" d="M0,0H197.83V197.83H0ZM181.65,150.66C180.2,141.6,174.31,134,156.9,127c-6.06-2.81-12.83-4.83-14.81-9.4-.75-2.73-.88-4.18-.4-5.81,1.28-5.36,7.52-6.94,12.49-5.45a13.35,13.35,0,0,1,8,7.39c8.53-5.59,8.53-5.59,14.47-9.28-2.2-3.43-3.3-5-4.84-6.42-5.19-5.84-12.09-8.79-23.34-8.53l-5.85.75c-5.58,1.36-10.9,4.31-14.11,8.27-9.37,10.64-6.69,29.19,4.7,36.88,11.26,8.4,27.7,10.24,29.81,18.16,2,9.67-7.17,12.75-16.22,11.6-6.69-1.49-10.38-4.83-14.47-11l-15.08,8.66c1.72,4,3.7,5.68,6.69,9.15,14.33,14.46,50.2,13.71,56.62-8.27a28.13,28.13,0,0,0,.61-13.58ZM107.58,90.91H89.07c0,16-.09,31.83-.09,47.84,0,10.15.53,19.47-1.14,22.33-2.73,5.67-9.72,5-12.93,4-3.25-1.63-4.92-3.83-6.81-7A8.82,8.82,0,0,0,67,156.38l-15,9.27a29.08,29.08,0,0,0,10.9,12.49c7,4.22,16.53,5.58,26.42,3.34,6.46-1.85,12-5.72,14.91-11.61,4.22-7.65,3.29-17.06,3.29-27.61.09-16.92,0-33.85,0-50.95Z"/></g></svg>