<svg xmlns="http://www.w3.org/2000/svg" viewBox="0 0 186.43 186.42"><defs><style>.cls-1{fill:#132c32;}</style></defs><title>Artboard 9</title><g id="Layer_3" data-name="Layer 3"><path class="cls-1" d="M35,165.8l7.37-2.71-.17-.48c-2,.69-4.07,1.52-6.17,2a3.82,3.82,0,0,1-2.95-.46,86.4,86.4,0,0,1-18.77-21.69,4.25,4.25,0,0,1-.3-2.89c.57-2.44,1.43-4.82,2.1-7.24,2.89-10.43,5.69-20.88,8.7-31.27.62-2.15,1.95-4.1,3-6.14q4.17-8.39,8.38-16.78a3.33,3.33,0,0,1,1.36-1.53C38.25,83,39,89.3,39.82,95.7H30.47l-.08.4a11,11,0,0,0,1.66.43c2,.18,4,.41,6,.43,1.44,0,2,.51,2.22,2q2.66,22.19,5.42,44.35c.31,2.48.68,5,1,7.42l.54-.06c-.19-2.11-.32-4.23-.58-6.33-1.81-15-3.61-30-5.5-44.94-.22-1.79.42-2.14,2-2,3.92.33,7.84.67,11.77.81a25.58,25.58,0,0,0,5.22-.67c-2.56-.2-5.12-.41-7.69-.6-3.34-.24-6.69-.41-10-.76-.63-.07-1.63-.76-1.7-1.27C39.8,88.42,39,82,38.22,75.49a4.37,4.37,0,0,1,.19-.82l20,21.57.63-.58L38.63,73.3,43,65.87c8.26-13.93,16.58-27.81,24.72-41.8C70.41,19.48,72.59,14.6,75,9.86c.32-.61.74-1.18,1.2-1.93l36,17.86.34-.69L78.38,8.25l.07-.5C81.89,7,85.33,6.24,88.78,5.5c6-1.29,12.09-2.62,18.16-3.8a11.77,11.77,0,0,1,4.58,0c26.32,5.64,46.64,19.91,61.08,42.6.24.37.43.78.91,1.67L132.13,32.64l-.22.6c1.1.42,2.19.9,3.32,1.26q18.48,6,37,12a5.18,5.18,0,0,1,3.24,2.75c20,38,12.25,83.88-19.76,113a90.73,90.73,0,0,1-30.79,18.54,91.74,91.74,0,0,1-55.12,2.52,93.2,93.2,0,0,1-32.22-15.46C36.8,167.32,36.07,166.7,35,165.8ZM99.3,124c7.63,0,14.73-1.22,21.36-4.63C128,115.61,133.2,110,135.58,102c4.23-14.24-2.3-26.16-16.48-30.17-.25-.07-.5-.17-.32-.11,3.16-2.37,6.74-4.42,9.53-7.25,6.43-6.53,8.06-14.55,5.48-23.26-2.42-8.16-8.53-12.35-16.51-14-9.09-1.89-17.94-.68-26.57,2.56-1.09.4-1.24,1.08-1.23,2.07,0,4,0,8,0,12v5.56c2.17,0,4.1,0,6,0,1.14,0,1.61-.4,1.75-1.5.34-2.75.68-5.5,1.19-8.22a2.81,2.81,0,0,1,1.43-1.88,22.14,22.14,0,0,1,11.8-.95,12.09,12.09,0,0,1,10.24,11.27c.71,7.31-2.17,12.8-8.47,16.5a35.16,35.16,0,0,1-12.64,4c-.57.09-1.52.6-1.54.94-.12,2.94-.07,5.88-.07,9a19.07,19.07,0,0,1,2.76,0,100.75,100.75,0,0,1,11.55,2.08,13.1,13.1,0,0,1,8.67,7.73,17.17,17.17,0,0,1-7,21.4,30.2,30.2,0,0,1-7.94,2.89,60.79,60.79,0,0,1-7.94.9ZM87.68,69.44H58.05a6.42,6.42,0,0,0-.15.87c0,1.42,0,2.84,0,4.26.09,4.05-.78,3.29,3.53,4.11,3.58.67,7.22,1.1,10.84,1.64v65.26c-4.35.7-8.55,1.33-12.73,2.08-.6.11-1.53.76-1.56,1.2-.15,2.48-.07,5-.07,7.54h44.36c0-2.34-.06-4.58,0-6.81a1.68,1.68,0,0,0-1.71-2c-3.51-.48-7-1.19-10.52-1.49-1.93-.16-2.41-.76-2.4-2.66.07-23.87,0-47.74,0-71.6ZM49.14,159.22l.56.06c.08-.31.18-.61.25-.91,3.56-16.9,7.18-33.79,10.62-50.71.48-2.38.07-5,.07-7.43q-4.26,18.4-8,36.86c-1.35,6.74-2.35,13.54-3.49,20.32A10.93,10.93,0,0,0,49.14,159.22ZM103,160.35v-.61c-16.11-.57-32.21-1.39-48.33,0l1.31.42,0,.46H49.35l0,.49Zm47.36-65.58.64-.25-8.67-21-.69.28Q146,84.28,150.38,94.77Z"/><path class="cls-1" d="M76.17,6.5,38.38,71.94c-.53-.32-1-.58-1.48-.9-8.58-6-17.14-12-25.76-17.85-1.3-.89-1.44-1.57-.71-2.92q19.17-35.49,57.81-47c2.62-.78,4.08,1.33,6.14,1.91C75.06,5.35,75.6,6.06,76.17,6.5Z"/><path class="cls-1" d="M25.4,95.85l-13,43.49c-.59-.93-.95-1.42-1.24-2A93.58,93.58,0,0,1,.33,101.18c-.27-3-.22-3,2.89-3.22,4.18-.23,8.36-.42,12.52-.82,2.48-.24,4.93-.87,7.39-1.27A16.3,16.3,0,0,1,25.4,95.85Z"/><path class="cls-1" d="M37.19,72.17,28,75.38c-3.95,1.37-7.89,2.76-11.87,4.07a2.24,2.24,0,0,1-1.87-.13c-3.05-3.25-6-6.61-9-9.92a4.16,4.16,0,0,1-.79-4.64c1.38-3.65,2.74-7.31,4.19-11.18Z"/><path class="cls-1" d="M14.61,81.72c3.61,4.3,7.27,8.67,11.3,13.46-2.75.23-4.9.45-7,.58-5.66.33-11.33.57-17,1C.49,96.81,0,96.43,0,95.07c.09-2.38,0-4.78.26-7.15a2.7,2.7,0,0,1,1.57-1.76C6,84.62,10.2,83.23,14.61,81.72Z"/><path class="cls-1" d="M26.24,94.66,15.94,81.55l20.79-8.49Z"/><path class="cls-1" d="M105.77,1.25l-28.22,6-5.28-5A82.71,82.71,0,0,1,105.77,1.25Z"/><path class="cls-1" d="M13.28,80.43.12,85c1-5.8,2-11.09,3-16.37l.75-.16Z"/></g></svg>