<svg id="Layer_1" data-name="Layer 1" xmlns="http://www.w3.org/2000/svg" viewBox="0 0 453.93 456.06"><defs><style>.cls-1{fill:#fff;}</style></defs><title>Artboard 5</title><rect width="453.93" height="456.06" rx="38.35"/><path class="cls-1" d="M349.31,150.83A101.57,101.57,0,0,1,324.36,158c4-.68,9.91-7.94,12.27-10.88a45.6,45.6,0,0,0,8.28-15.1c.22-.43.38-1-.05-1.3a1.46,1.46,0,0,0-1.33.11A126.68,126.68,0,0,1,314,142.1a2,2,0,0,1-2-.54,23.18,23.18,0,0,0-2.59-2.64A52.09,52.09,0,0,0,295,130.14a49.73,49.73,0,0,0-22-3.54,52.53,52.53,0,0,0-20.86,5.89,53.6,53.6,0,0,0-16.82,13.74,51.55,51.55,0,0,0-10,20.12c-1.74,7.08-1.59,14.08-.54,21.24.16,1.19.06,1.35-1,1.19-40.63-6.05-74.31-20.59-101.65-51.74-1.19-1.36-1.83-1.36-2.8.1-12,17.93-6.16,46.74,8.78,60.9,2,1.89,4.05,3.78,6.25,5.5-.8.17-10.75-.91-19.61-5.5-1.19-.75-1.79-.32-1.89,1a31.45,31.45,0,0,0,.32,5.82c2.3,18.18,14.89,35,32.13,41.55a30.09,30.09,0,0,0,6.51,2c-3.92.86-8,1.47-19.23.59-1.41-.27-1.94.43-1.41,1.78,8.47,23.07,26.74,29.94,40.42,33.85,1.84.32,3.67.32,5.51.75-.11.17-.22.17-.33.32-4.54,6.93-20.27,12.08-27.6,14.64a99,99,0,0,1-41.93,5.36c-2.25-.33-2.73-.3-3.34,0s-.08.92.65,1.51c2.86,1.88,5.77,3.56,8.73,5.17a137.66,137.66,0,0,0,28,11.21c50.36,13.91,107.09,3.69,144.91-33.88,29.7-29.51,40.1-70.2,40.1-110.94,0-1.59,1.89-2.47,3-3.31A98.38,98.38,0,0,0,349,155a6.27,6.27,0,0,0,1.3-3.93v-.22C350.32,150.18,350.31,150.38,349.31,150.83Z"/></svg>